<svg width="50" height="50" viewBox="0 0 50 50" fill="none" xmlns="http://www.w3.org/2000/svg">
<g clip-path="url(#clip0_403_253)">
<path d="M25 0C38.807 0 50 11.193 50 25C50 38.807 38.807 50 25 50C25 48.9131 21.7392 25 21.7392 25L25 0Z" fill="#F0F0F0"/>
<path d="M25 50C11.193 50 0 38.807 0 25C0 11.193 11.193 0 25 0" fill="#496E2D"/>
<path d="M30.3714 20.2047L28.3202 23.0314L24.9983 21.954L27.0528 24.7782L25.0018 27.6049L28.3225 26.5238L30.377 29.3479L30.3748 25.8556L33.6956 24.7743L30.3738 23.6972L30.3714 20.2047Z" fill="#D80027"/>
<path d="M27.0739 32.0653C23.172 32.0653 20.0087 28.902 20.0087 25C20.0087 21.0981 23.172 17.9348 27.0739 17.9348C28.2905 17.9348 29.4354 18.2424 30.4348 18.784C28.8668 17.2507 26.7227 16.3043 24.3566 16.3043C19.554 16.3043 15.6609 20.1975 15.6609 24.9999C15.6609 29.8024 19.5541 33.6955 24.3566 33.6955C26.7228 33.6955 28.8669 32.7491 30.4348 31.2158C29.4354 31.7576 28.2905 32.0653 27.0739 32.0653Z" fill="#D80027"/>
</g>
<defs>
<clipPath id="clip0_403_253">
<rect width="50" height="50" fill="white"/>
</clipPath>
</defs>
</svg>
