<svg width="50" height="50" viewBox="0 0 50 50" fill="none" xmlns="http://www.w3.org/2000/svg">
<g clip-path="url(#clip0_403_253)">
<path d="M25 0.00012207C38.807 0.00012207 50 11.1931 50 25.0001C50 38.8071 38.807 50 25 50C11.193 50 9.15527e-05 38.8071 9.15527e-05 25.0001" fill="#FFDA44"/>
<path d="M24.4566 11.1112H45.789C44.3843 9.01288 42.6701 7.13984 40.7121 5.55566H24.4566V11.1112Z" fill="#D80027"/>
<path d="M24.4566 22.2223H49.8457C49.6326 20.296 49.2009 18.4359 48.5756 16.6669H24.4566V22.2223Z" fill="#D80027"/>
<path d="M1.42459 33.3334H48.5754C49.2007 31.5644 49.6325 29.7041 49.8456 27.7778H0.15448C0.36737 29.7042 0.799205 31.5645 1.42459 33.3334V33.3334Z" fill="#D80027"/>
<path d="M9.28786 44.4445H40.712C42.6699 42.8604 44.3842 40.9872 45.7889 38.8889H4.21121C5.6159 40.9872 7.32996 42.8603 9.28786 44.4445V44.4445Z" fill="#D80027"/>
<path d="M25.0001 0.00012207C11.1929 0.00012207 -9.76554e-05 11.1931 6.39011e-10 25.0003C5.70565 25.0001 11.1929 25.0003 25 25.0003L25.0001 0.00012207Z" fill="#4A1F63"/>
<path d="M20.6522 13.0435V15.2175H19.5653V13.0435H17.3914V15.2175H16.3045V10.8696H11.9566V15.2175H10.8696V13.0435H8.69578V15.2175H7.60877V13.0435H5.43475V19.5652H22.8261V13.0435H20.6522Z" fill="#F0F0F0"/>
</g>
<defs>
<clipPath id="clip0_403_253">
<rect width="50" height="50" fill="white"/>
</clipPath>
</defs>
</svg>
